<?xml version="1.0" encoding="UTF-8"?>
<svg version="1.1" xmlns="http://www.w3.org/2000/svg" width="500" height="500">
<path d="M0 0 C0.66 0 1.32 0 2 0 C2.68877573 6.10058507 2.39429856 8.99532183 -1.4375 13.875 C-5.50051953 19.08483956 -6.0864547 23.50354688 -6 30 C-5.01 29.67 -4.02 29.34 -3 29 C-2.87044922 28.07380859 -2.87044922 28.07380859 -2.73828125 27.12890625 C-1.65188041 20.58060027 0.45873602 15.59573774 4 10 C4.66 10 5.32 10 6 10 C5.67 12.64 5.34 15.28 5 18 C5.845625 17.67 6.69125 17.34 7.5625 17 C11.20989216 15.93894046 14.22274664 15.84890987 18 16 C14.31465517 21.65086207 14.31465517 21.65086207 10.6171875 22.6328125 C9.75351562 22.75398438 8.88984375 22.87515625 8 23 C3.98021493 23.58782677 3.26685246 23.7207358 0.3125 26.8125 C-0.450625 27.864375 -1.21375 28.91625 -2 30 C-3.0725 30.721875 -4.145 31.44375 -5.25 32.1875 C-9.61510938 35.12920415 -12.55427664 39.11340024 -15.7890625 43.21484375 C-17.74654489 45.68071821 -19.7704212 48.03509909 -21.875 50.375 C-27.11735386 56.39580083 -28.4686486 60.03297379 -28 68 C-24.07954879 65.60999231 -21.4299256 63.53573423 -20.16015625 59 C-19.85134237 56.87658558 -19.59128394 54.74535438 -19.38671875 52.609375 C-19 50 -19 50 -17 48 C-16.34 49.65 -15.68 51.3 -15 53 C-14.40251953 52.16855469 -14.40251953 52.16855469 -13.79296875 51.3203125 C-13.26316406 50.59585938 -12.73335938 49.87140625 -12.1875 49.125 C-11.66542969 48.40570313 -11.14335937 47.68640625 -10.60546875 46.9453125 C-9 45 -9 45 -6 43 C-5.5 45.5625 -5.5 45.5625 -6 49 C-8.41995038 51.65876127 -11.13443598 53.83803429 -14 56 C-12.28822349 55.42940783 -10.57907687 54.85039012 -8.87890625 54.24609375 C-8.11449219 53.97925781 -7.35007812 53.71242187 -6.5625 53.4375 C-5.80066406 53.16808594 -5.03882813 52.89867187 -4.25390625 52.62109375 C-2 52 -2 52 2 52 C-0.3442623 57.2295082 -0.3442623 57.2295082 -3 59 C-4.97807201 59 -6.95714326 58.99413968 -8.93359375 58.9140625 C-13.08375371 59.08665894 -16.14350874 61.14350874 -19 64 C-17.35 64.33 -15.7 64.66 -14 65 C-17.5014109 69.5670577 -21.57787183 70.2044754 -27 71 C-27.66 71 -28.32 71 -29 71 C-28.83701416 71.55719727 -28.67402832 72.11439453 -28.50610352 72.68847656 C-27.9572825 75.19510339 -27.88670615 77.41980924 -27.90234375 79.984375 C-27.90484131 80.82709961 -27.90733887 81.66982422 -27.90991211 82.53808594 C-27.92356812 84.1279834 -27.92356812 84.1279834 -27.9375 85.75 C-27.958125 89.1325 -27.97875 92.515 -28 96 C-36.25 96 -44.5 96 -53 96 C-55 86 -55 86 -55.67578125 82.57421875 C-57.40137967 74.64373779 -57.40137967 74.64373779 -63 69 C-71.83736554 66.19261802 -71.83736554 66.19261802 -89 66 C-88.67 109.56 -88.34 153.12 -88 198 C-61.38780733 197.96038424 -61.38780733 197.96038424 -34.77563477 197.90991211 C-29.6385498 197.90539551 -29.6385498 197.90539551 -27.23667908 197.90455627 C-25.55255367 197.90301671 -23.8684294 197.89949153 -22.18431091 197.89442444 C-19.63921176 197.88714708 -17.0941802 197.88609258 -14.54907227 197.88647461 C-13.41621339 197.88107745 -13.41621339 197.88107745 -12.26046848 197.87557125 C-7.11402634 197.88597366 -7.11402634 197.88597366 -6 199 C-5.76736289 201.78992492 -5.59544499 204.56017948 -5.46484375 207.35546875 C-5.42186661 208.20869217 -5.37888947 209.06191559 -5.33460999 209.94099426 C-5.24414534 211.75929739 -5.15603947 213.57771911 -5.07006836 215.39624023 C-4.94018167 218.13103681 -4.80178976 220.86529765 -4.66210938 223.59960938 C-4.17496432 233.41479225 -3.89894405 243.17062435 -4 253 C-8.95 253 -13.9 253 -19 253 C-19 276.1 -19 299.2 -19 323 C-26.59 323 -34.18 323 -42 323 C-44 314 -44 314 -44.7109375 310.56640625 C-44.93007813 309.57511719 -45.14921875 308.58382813 -45.375 307.5625 C-45.69597656 306.04849609 -45.69597656 306.04849609 -46.0234375 304.50390625 C-46.75322719 301.95770941 -46.75322719 301.95770941 -48.58544922 300.86938477 C-51.9035526 299.67466625 -55.12347733 299.64315654 -58.609375 299.5859375 C-59.57641357 299.55947144 -59.57641357 299.55947144 -60.56298828 299.5324707 C-62.95841076 299.46967042 -65.35424128 299.42329974 -67.75 299.375 C-73.1125 299.25125 -78.475 299.1275 -84 299 C-84 315.5 -84 332 -84 349 C-76.905 348.896875 -69.81 348.79375 -62.5 348.6875 C-60.27572266 348.66260498 -58.05144531 348.63770996 -55.75976562 348.61206055 C-53.97523961 348.57974248 -52.19073234 348.54636482 -50.40625 348.51171875 C-49.49713867 348.50547485 -48.58802734 348.49923096 -47.65136719 348.49279785 C-40.99368046 348.34402777 -35.14828474 347.47599477 -29.75 343.23046875 C-24.92294638 337.59531463 -21.27698857 331.63649649 -17.76171875 325.13671875 C-14.82337026 319.90502509 -14.82337026 319.90502509 -13 318 C-10.36450195 317.54589844 -10.36450195 317.54589844 -7.23828125 317.609375 C-5.56088867 317.62871094 -5.56088867 317.62871094 -3.84960938 317.6484375 C-2.09874023 317.69871094 -2.09874023 317.69871094 -0.3125 317.75 C0.86634766 317.76804687 2.04519531 317.78609375 3.25976562 317.8046875 C6.17398926 317.85188141 9.08659031 317.91770923 12 318 C11.67 319.093125 11.34 320.18625 11 321.3125 C9.86913351 324.84578884 9.86913351 324.84578884 10 328 C10.2475 327.360625 10.495 326.72125 10.75 326.0625 C11.1625 325.381875 11.575 324.70125 12 324 C12.639375 323.87625 13.27875 323.7525 13.9375 323.625 C16.38440249 323.14137349 16.38440249 323.14137349 17.75 319.9375 C18.1625 318.968125 18.575 317.99875 19 317 C19.33 317 19.66 317 20 317 C20.45507591 323.48483168 19.71080066 326.6399546 16 332 C15.34 332.61875 14.68 333.2375 14 333.875 C10.98477602 337.07867548 9.62539549 340.95380271 8 345 C19.57913197 340.68108468 19.57913197 340.68108468 28 332 C28.44111565 330.11845117 28.8109267 328.21937362 29.125 326.3125 C29.29257812 325.31863281 29.46015625 324.32476562 29.6328125 323.30078125 C29.75398438 322.54152344 29.87515625 321.78226562 30 321 C30.66 321 31.32 321 32 321 C32.33 322.32 32.66 323.64 33 325 C33.48210937 324.6390625 33.96421875 324.278125 34.4609375 323.90625 C35.09257812 323.4421875 35.72421875 322.978125 36.375 322.5 C37.00148438 322.0359375 37.62796875 321.571875 38.2734375 321.09375 C40 320 40 320 42 320 C41.71711523 323.39461728 41.25867941 324.74132059 38.8125 327.1875 C36 329 36 329 32.8125 329.9375 C29.79268929 330.72265104 29.79268929 330.72265104 28.6875 333.5 C28.3471875 334.7375 28.3471875 334.7375 28 336 C27.67 336.66 27.34 337.32 27 338 C30.14049231 337.26742523 30.14049231 337.26742523 31.75 334.6875 C34.53829663 331.35703458 37.16529752 329.99109552 41 328 C40.42655063 330.86724686 40.1385485 331.8614515 38 334 C40.97 334.66 43.94 335.32 47 336 C47 336.66 47 337.32 47 338 C43.67728722 339.66135639 40.21182931 339.31462905 36.66796875 338.39453125 C26.92908098 336.95437361 8.95725133 345.49224862 1 351 C-0.34689915 353.57099402 -0.34689915 353.57099402 -1 356 C1.64 355.67 4.28 355.34 7 355 C7.103125 354.236875 7.20625 353.47375 7.3125 352.6875 C8.04711194 349.81583516 8.6716065 348.76957906 11 347 C11.66 347 12.32 347 13 347 C12.67 348.32 12.34 349.64 12 351 C13.093125 350.34 14.18625 349.68 15.3125 349 C17.93707538 347.41535071 18.8256378 347 22 347 C20.9024777 349.99324263 20.32317108 350.84610901 17.375 352.25 C16.59125 352.4975 15.8075 352.745 15 353 C17.97 353.99 20.94 354.98 24 356 C23.67 356.66 23.34 357.32 23 358 C20.125 358.75 20.125 358.75 17 359 C16.01 358.34 15.02 357.68 14 357 C11.9507906 356.54860541 11.9507906 356.54860541 9.8125 356.375 C8.554375 356.25125 7.29625 356.1275 6 356 C6 356.66 6 357.32 6 358 C6.99 358.33 7.98 358.66 9 359 C5.21007866 361.57714651 2.35370824 360.72646474 -2 360 C-2.63228516 361.82337891 -2.63228516 361.82337891 -3.27734375 363.68359375 C-3.83057808 365.26828192 -4.38397172 366.85291448 -4.9375 368.4375 C-5.21529297 369.23994141 -5.49308594 370.04238281 -5.77929688 370.86914062 C-6.04677734 371.63291016 -6.31425781 372.39667969 -6.58984375 373.18359375 C-6.83597412 373.89056396 -7.08210449 374.59753418 -7.33569336 375.32592773 C-8 377 -8 377 -9 378 C-10.80960871 378.09641497 -12.62302128 378.12187398 -14.43519592 378.12025452 C-15.61455215 378.12162918 -16.79390839 378.12300385 -18.00900269 378.12442017 C-19.3145108 378.12082489 -20.62001892 378.11722961 -21.96508789 378.11352539 C-23.34452818 378.11324352 -24.72396861 378.11340125 -26.10340881 378.1139679 C-29.85944118 378.11425588 -33.61544189 378.10835905 -37.37146688 378.10139394 C-41.29260045 378.09516051 -45.21373467 378.09455661 -49.13487244 378.09336853 C-56.56511611 378.09025518 -63.99534514 378.08204175 -71.42558235 378.07201904 C-79.88251638 378.06085801 -88.3394511 378.05534748 -96.79639065 378.05032361 C-114.19760249 378.03985914 -131.59879914 378.02205919 -149 378 C-149 370.08 -149 362.16 -149 354 C-141.375 353.5625 -141.375 353.5625 -139.00927734 353.43188477 C-138.3745752 353.39377686 -137.73987305 353.35566895 -137.0859375 353.31640625 C-136.4470459 353.27974854 -135.8081543 353.24309082 -135.14990234 353.20532227 C-132.41615765 352.94424127 -129.70881863 352.45146977 -127 352 C-127 326.59 -127 301.18 -127 275 C-154.72 275 -182.44 275 -211 275 C-211 266.75 -211 258.5 -211 250 C-203.74 249.67 -196.48 249.34 -189 249 C-188.67 232.17 -188.34 215.34 -188 198 C-206.15 198 -224.3 198 -243 198 C-242.7834375 207.3121875 -242.7834375 207.3121875 -242.5625 216.8125 C-242.49784546 219.71639526 -242.49784546 219.71639526 -242.43188477 222.67895508 C-242.5076734 235.42800742 -242.5076734 235.42800742 -241 248 C-238.70691037 249.14654482 -237.20090344 249.19729117 -234.6484375 249.31640625 C-233.88192871 249.35451416 -233.11541992 249.39262207 -232.32568359 249.43188477 C-231.35195801 249.47498779 -230.37823242 249.51809082 -229.375 249.5625 C-226.28125 249.706875 -223.1875 249.85125 -220 250 C-220 258.25 -220 266.5 -220 275 C-249.04 275 -278.08 275 -308 275 C-308.33 265.76 -308.66 256.52 -309 247 C-308.34 247.66 -307.68 248.32 -307 249 C-304.42938689 249.64767793 -304.42938689 249.64767793 -302 250 C-303.3937282 245.56541027 -305.60582235 243.12621626 -309 240 C-308.505 239.01 -308.505 239.01 -308 238 C-307.34 238 -306.68 238 -306 238 C-306.33 235.36 -306.66 232.72 -307 230 C-306.01 230.33 -305.02 230.66 -304 231 C-302.8125 233.5625 -302.8125 233.5625 -302 236 C-301.01 234.02 -300.02 232.04 -299 230 C-298.34 230 -297.68 230 -297 230 C-296.8125 233.3125 -296.8125 233.3125 -297 237 C-298.5 238.625 -298.5 238.625 -300 240 C-300.25069913 242.62570704 -300.25069913 242.62570704 -300 245 C-299.34 244.67 -298.68 244.34 -298 244 C-298 245.98 -298 247.96 -298 250 C-294.04 249.67 -290.08 249.34 -286 249 C-286 206.76 -286 164.52 -286 121 C-289.2523959 120.34952082 -291.9715807 119.85648042 -295.20703125 119.68359375 C-295.88483643 119.64548584 -296.5626416 119.60737793 -297.26098633 119.56811523 C-298.10298584 119.52501221 -298.94498535 119.48190918 -299.8125 119.4375 C-302.514375 119.293125 -305.21625 119.14875 -308 119 C-308 111.08 -308 103.16 -308 95 C-278.96 95 -249.92 95 -220 95 C-220 102.92 -220 110.84 -220 119 C-228.1875 119.4375 -228.1875 119.4375 -230.73901367 119.56811523 C-231.41681885 119.60622314 -232.09462402 119.64433105 -232.79296875 119.68359375 C-233.4789917 119.72025146 -234.16501465 119.75690918 -234.87182617 119.79467773 C-237.27047575 120.026095 -239.63700936 120.52740187 -242 121 C-242.33 136.84 -242.66 152.68 -243 169 C-224.85 169 -206.7 169 -188 169 C-188.33 153.16 -188.66 137.32 -189 121 C-192.2523959 120.34952082 -194.9715807 119.85648042 -198.20703125 119.68359375 C-198.88483643 119.64548584 -199.5626416 119.60737793 -200.26098633 119.56811523 C-201.10298584 119.52501221 -201.94498535 119.48190918 -202.8125 119.4375 C-205.514375 119.293125 -208.21625 119.14875 -211 119 C-211 111.08 -211 103.16 -211 95 C-205.72 95 -200.44 95 -195 95 C-195.01933594 93.26234375 -195.03867188 91.5246875 -195.05859375 89.734375 C-195.05746784 81.42515334 -194.64197752 73.14697064 -194.20043945 64.85107422 C-194.06201074 62.24077418 -193.93007039 59.63020146 -193.79882812 57.01953125 C-193.71132102 55.33070925 -193.62344333 53.6419064 -193.53515625 51.953125 C-193.47727684 50.80435883 -193.47727684 50.80435883 -193.41822815 49.63238525 C-193.13354373 44.37427803 -192.58368711 39.25318399 -192 34 C-142.5 33.67 -93 33.34 -42 33 C-42.33 32.01 -42.66 31.02 -43 30 C-40.69 29.67 -38.38 29.34 -36 29 C-37.175625 28.4740625 -37.175625 28.4740625 -38.375 27.9375 C-41.83547272 25.38334156 -42.14536744 23.11777506 -43 19 C-42.34 18.67 -41.68 18.34 -41 18 C-35.71796653 20.76106295 -34.10338462 23.30976437 -31.9453125 28.8046875 C-30.73717474 31.61036281 -29.03840526 33.74319417 -27 36 C-27.433125 35.2575 -27.433125 35.2575 -27.875 34.5 C-29.81276966 30.1938452 -31 25.72746228 -31 21 C-30.01 21.33 -29.02 21.66 -28 22 C-27.67 17.71 -27.34 13.42 -27 9 C-26.34 9 -25.68 9 -25 9 C-22.38317353 13.5293883 -21.61314364 16.78361516 -21.6875 22 C-21.69136719 23.175625 -21.69523437 24.35125 -21.69921875 25.5625 C-22.0016972 29.01939655 -22.87768548 31.73468335 -24 35 C-24.27422429 37.64014088 -24.27422429 37.64014088 -24.1875 40.1875 C-24.18105469 41.02667969 -24.17460937 41.86585937 -24.16796875 42.73046875 C-24.08104148 45.16578288 -24.08104148 45.16578288 -23 48 C-14.72978312 39.41412598 -8.66355523 32.84815301 -7.8828125 20.54296875 C-8.03906689 17.15224856 -9.31134762 14.9044821 -11 12 C-11.1875 8.625 -11.1875 8.625 -11 6 C-9.35 7.65 -7.7 9.3 -6 11 C-5.65066406 10.28972656 -5.30132812 9.57945313 -4.94140625 8.84765625 C-4.48636719 7.92855469 -4.03132813 7.00945313 -3.5625 6.0625 C-2.88380859 4.68771484 -2.88380859 4.68771484 -2.19140625 3.28515625 C-1 1 -1 1 0 0 Z M-24 19 C-24.33 21.64 -24.66 24.28 -25 27 C-24.34 27 -23.68 27 -23 27 C-23 24.36 -23 21.72 -23 19 C-23.33 19 -23.66 19 -24 19 Z M4 22 C7.465 21.505 7.465 21.505 11 21 C11 20.67 11 20.34 11 20 C7.04542152 19.65176193 7.04542152 19.65176193 4 22 Z M-40 21 C-38.68 22.32 -37.36 23.64 -36 25 C-36.66 23.68 -37.32 22.36 -38 21 C-38.66 21 -39.32 21 -40 21 Z M-29 27 C-28 29 -28 29 -28 29 Z M-30 36 C-30.05390357 38.93774463 -30.0936255 41.87450232 -30.125 44.8125 C-30.14175781 45.64587891 -30.15851563 46.47925781 -30.17578125 47.33789062 C-30.18222656 48.14033203 -30.18867188 48.94277344 -30.1953125 49.76953125 C-30.20578613 50.50792236 -30.21625977 51.24631348 -30.22705078 52.00708008 C-30.11741479 54.31890676 -30.11741479 54.31890676 -28 57 C-25.35930032 52.42348861 -25.45428641 48.16450691 -26 43 C-26.78012514 40.45219246 -27.7602586 38.37617101 -29 36 C-29.33 36 -29.66 36 -30 36 Z M-18 51 C-17 55 -17 55 -17 55 Z M-163.5703125 70.55859375 C-168.71869704 77.63394507 -169 86.55305287 -169 95 C-157.78 95 -146.56 95 -135 95 C-135 85.43 -135 75.86 -135 66 C-150.23964366 64.69791979 -150.23964366 64.69791979 -163.5703125 70.55859375 Z M-145 121 C-146.05796057 125.40200679 -146.12155282 129.6873168 -146.11352539 134.19873047 C-146.11367142 134.89211014 -146.11381744 135.58548981 -146.1139679 136.29988098 C-146.11327596 138.57234926 -146.1055175 140.84473369 -146.09765625 143.1171875 C-146.09578951 144.70044917 -146.09436682 146.28371142 -146.09336853 147.86697388 C-146.08956349 152.01962906 -146.07975051 156.17224886 -146.06866455 160.32489014 C-146.05840703 164.56815106 -146.05386163 168.81141773 -146.04882812 173.0546875 C-146.03812633 181.36980784 -146.02107424 189.68489951 -146 198 C-142.37 198 -138.74 198 -135 198 C-135 171.93 -135 145.86 -135 119 C-140.37787547 118.9074528 -140.37787547 118.9074528 -145 121 Z M-84 228 C-84 241.86 -84 255.72 -84 270 C-75.6778125 270.0309375 -75.6778125 270.0309375 -67.1875 270.0625 C-65.43977295 270.071604 -63.6920459 270.08070801 -61.89135742 270.09008789 C-60.50439531 270.09300881 -59.11743235 270.09555695 -57.73046875 270.09765625 C-56.65230896 270.1053302 -56.65230896 270.1053302 -55.55236816 270.11315918 C-52.42307544 270.11370731 -49.99286913 269.99762304 -47 269 C-43.92752293 264.25627055 -43.48572096 260.09878243 -43.3125 254.625 C-43.27833984 253.88894531 -43.24417969 253.15289062 -43.20898438 252.39453125 C-43.12727211 250.59686147 -43.06194219 248.79845954 -43 247 C-38.38 247 -33.76 247 -29 247 C-29.68848329 237.14930199 -29.68848329 237.14930199 -35 229.125 C-38.363451 227.23305882 -41.05537632 226.87213683 -44.83984375 226.8671875 C-45.82275391 226.86589844 -46.80566406 226.86460937 -47.81835938 226.86328125 C-48.84767578 226.86714844 -49.87699219 226.87101563 -50.9375 226.875 C-52.38286133 226.86919922 -52.38286133 226.86919922 -53.85742188 226.86328125 C-63.94982178 226.87622852 -73.88153819 227.49407691 -84 228 Z M-146 228 C-146.1989357 238.5552972 -146.1989357 238.5552972 -145 249 C-141.37918537 250.20693821 -138.0749281 250.10782079 -134.3125 250.0625 C-131.899375 250.041875 -129.48625 250.02125 -127 250 C-127 242.74 -127 235.48 -127 228 C-133.27 228 -139.54 228 -146 228 Z M11 329 C12 332 12 332 12 332 Z M7 332 C6.1605118 334.10171867 5.32860344 336.20646625 4.5 338.3125 C4.0359375 339.48425781 3.571875 340.65601563 3.09375 341.86328125 C1.83537487 344.91846448 1.83537487 344.91846448 2 348 C4.44257034 347.32618749 5.70917341 346.51129191 6.96875 344.296875 C8.79970026 339.85512529 9.30879796 336.75926531 8 332 C7.67 332 7.34 332 7 332 Z M40 337 C44 338 44 338 44 338 Z " fill="#FAF7F0" transform="translate(372,10)"/>
<path d="M0 0 C22.44 0 44.88 0 68 0 C68 1.32 68 2.64 68 4 C67.3709375 4.02578125 66.741875 4.0515625 66.09375 4.078125 C59.09191002 4.54210235 53.08898721 5.91101279 48 11 C45.67208188 18.30802431 45.66484602 25.97662666 45.5859375 33.5703125 C45.56829346 34.60212646 45.55064941 35.63394043 45.5324707 36.69702148 C45.46998846 40.50619686 45.42340003 44.31561966 45.375 48.125 C45.25125 56.66375 45.1275 65.2025 45 74 C69.75 74 94.5 74 120 74 C119.896875 64.739375 119.79375 55.47875 119.6875 45.9375 C119.66260498 43.02542725 119.63770996 40.11335449 119.61206055 37.11303711 C119.5797614 34.79278972 119.54638638 32.47255696 119.51171875 30.15234375 C119.50547485 28.9574231 119.49923096 27.76250244 119.49279785 26.53137207 C119.35054526 16.51804892 119.35054526 16.51804892 114.25 8.1875 C108.81325273 5.31810561 103.02005566 4.63369007 97 4 C97 2.68 97 1.36 97 0 C119.44 0 141.88 0 165 0 C165 1.32 165 2.64 165 4 C163.69675781 4.14695312 163.69675781 4.14695312 162.3671875 4.296875 C153.40964594 5.27745744 153.40964594 5.27745744 146 10 C142.5105167 16.22859754 142.57332343 21.89571432 142.61181641 28.92700195 C142.60655945 30.11165039 142.60130249 31.29629883 142.59588623 32.5168457 C142.58497929 35.75059624 142.58748852 38.98397562 142.59702349 42.21772027 C142.60465513 45.61497757 142.5975643 49.01221126 142.59286499 52.4094696 C142.58741535 58.11636764 142.59457581 63.823149 142.60888672 69.5300293 C142.62518831 76.10623884 142.61993983 82.68216895 142.6034075 89.25837165 C142.58974182 94.92318987 142.58789837 100.58792451 142.59572351 106.25275391 C142.60037528 109.62773501 142.60109486 113.00258532 142.59111404 116.37755775 C142.58345788 120.14683259 142.59516406 123.91557876 142.61181641 127.68481445 C142.60270737 129.3396006 142.60270737 129.3396006 142.59341431 131.02781677 C142.64726045 137.63852032 143.1836386 143.92533393 146 150 C151.56780197 154.85701874 157.82685091 154.7644286 165 155 C165 156.65 165 158.3 165 160 C142.56 160 120.12 160 97 160 C97 158.35 97 156.7 97 155 C98.02480469 154.91363281 99.04960937 154.82726562 100.10546875 154.73828125 C101.46626581 154.59750914 102.82693708 154.45551731 104.1875 154.3125 C105.19780273 154.23225586 105.19780273 154.23225586 106.22851562 154.15039062 C109.80548478 153.74907213 111.94186246 153.04227464 114.86328125 150.91796875 C120.02181168 143.87332116 119.33411131 135.12389497 119.4140625 126.75 C119.43170654 125.63753906 119.44935059 124.52507812 119.4675293 123.37890625 C119.53024287 119.25274688 119.57667293 115.12635294 119.625 111 C119.74875 101.76 119.8725 92.52 120 83 C95.58 83 71.16 83 46 83 C46.103125 93.291875 46.20625 103.58375 46.3125 114.1875 C46.33739502 117.43102295 46.36229004 120.6745459 46.38793945 124.01635742 C46.42022484 126.58774272 46.45359791 129.15911468 46.48828125 131.73046875 C46.49119675 132.39500565 46.49411224 133.05954254 46.49711609 133.74421692 C46.50689237 135.71265063 46.53692877 137.68095132 46.56762695 139.64916992 C46.58428154 141.31129768 46.58428154 141.31129768 46.60127258 143.00700378 C47.05179672 146.38880544 47.99134605 148.26574369 50 151 C55.37651231 154.86006012 61.60592181 154.69995426 68 155 C68.495 157.475 68.495 157.475 69 160 C46.23 160 23.46 160 0 160 C0 158.35 0 156.7 0 155 C1.30324219 154.96132813 1.30324219 154.96132813 2.6328125 154.921875 C11.7019201 154.73765559 11.7019201 154.73765559 19 150 C22.15045287 142.76686746 22.42680055 135.58306396 22.37231445 127.80834961 C22.37596512 126.63141037 22.37961578 125.45447113 22.38337708 124.24186707 C22.39143682 120.37854264 22.37791081 116.51564367 22.36328125 112.65234375 C22.36130022 109.95292484 22.3632298 107.25351127 22.36479187 104.55409241 C22.36567181 98.90799959 22.35465666 93.26202753 22.33618164 87.6159668 C22.31500835 81.10845299 22.31150815 74.60111575 22.3177436 68.09357446 C22.32345756 61.80593111 22.3177684 55.51834928 22.30657005 49.2307148 C22.30195191 46.56705462 22.30156464 43.90349604 22.3031559 41.23982048 C22.30352812 37.51386401 22.29086235 33.78817241 22.2746582 30.06225586 C22.27713562 28.96953369 22.27961304 27.87681152 22.28216553 26.75097656 C22.23920946 20.53962755 21.74529744 14.97995884 20 9 C17.84079146 7.38553207 17.84079146 7.38553207 15 7 C13.906875 6.649375 12.81375 6.29875 11.6875 5.9375 C7.75926153 4.93879531 4.02593551 4.42378269 0 4 C0 2.68 0 1.36 0 0 Z " fill="#030303" transform="translate(74,115)"/>
<path d="M0 0 C40.92 0 81.84 0 124 0 C125.15033784 18.40540541 125.15033784 18.40540541 125.0625 26.5 C125.05798828 27.33402344 125.05347656 28.16804688 125.04882812 29.02734375 C125.03738606 31.01826282 125.01947577 33.00914331 125 35 C123.68 35 122.36 35 121 35 C120.63648438 33.71416016 120.63648438 33.71416016 120.265625 32.40234375 C117.34919931 20.93187261 117.34919931 20.93187261 109.5625 12.625 C104.75053029 10.43006645 100.6384025 9.87923866 95.38354492 9.79467773 C93.70947571 9.76440491 93.70947571 9.76440491 92.00158691 9.73352051 C90.83961792 9.71704468 89.67764893 9.70056885 88.48046875 9.68359375 C87.40430298 9.66494263 86.32813721 9.6462915 85.21936035 9.6270752 C81.20882179 9.5589038 77.19815139 9.49867458 73.1875 9.4375 C64.215625 9.293125 55.24375 9.14875 46 9 C46 29.79 46 50.58 46 72 C53.074375 71.896875 60.14875 71.79375 67.4375 71.6875 C69.65267334 71.66260498 71.86784668 71.63770996 74.15014648 71.61206055 C75.93214961 71.57973521 77.71413407 71.54635655 79.49609375 71.51171875 C80.40008911 71.50547485 81.30408447 71.49923096 82.23547363 71.49279785 C88.54162436 71.35186397 95.71268157 70.90680671 100.64964294 66.54130554 C104.91990839 61.63789473 105.31382905 55.23698668 106 49 C107.65 49 109.3 49 111 49 C111 67.48 111 85.96 111 105 C109.35 105 107.7 105 106 105 C105.76925781 103.90300781 105.53851563 102.80601562 105.30078125 101.67578125 C104.97231325 100.22113727 104.64283235 98.76672174 104.3125 97.3125 C104.16361328 96.59126953 104.01472656 95.87003906 103.86132812 95.12695312 C102.69421923 90.11525024 101.21190151 87.24780388 97 84 C91.58776541 81.62411452 86.37672924 81.65629043 80.5703125 81.5859375 C79.57998016 81.56657135 78.58964783 81.5472052 77.56930542 81.5272522 C74.4212899 81.46770447 71.27323732 81.4211703 68.125 81.375 C65.98435948 81.3367974 63.84373396 81.29774435 61.703125 81.2578125 C56.4688836 81.16202348 51.2345511 81.07690405 46 81 C46.10757792 89.27556421 46.22022676 97.55103726 46.33933926 105.82644272 C46.39448957 109.66909719 46.4478968 113.51175938 46.49731445 117.35449219 C46.5450746 121.06334191 46.59742136 124.77210119 46.65294075 128.48084259 C46.67331159 129.8953857 46.69203325 131.30995356 46.70907402 132.72454071 C46.73323472 134.70671809 46.76381723 136.68881404 46.79467773 138.67089844 C46.81799416 140.36300446 46.81799416 140.36300446 46.84178162 142.08929443 C47.01845371 145.63556565 47.01845371 145.63556565 48 149 C50.91113192 149.97037731 52.7892946 150.13184087 55.81933594 150.14526367 C56.7975531 150.15164352 57.77577026 150.15802338 58.78363037 150.16459656 C59.8398761 150.16570938 60.89612183 150.1668222 61.984375 150.16796875 C63.61780853 150.17296135 63.61780853 150.17296135 65.28424072 150.17805481 C67.5908567 150.18312105 69.89748002 150.18546323 72.20410156 150.18530273 C75.72212941 150.18748273 79.23984042 150.20562396 82.7578125 150.22460938 C84.99999893 150.2275447 87.24218685 150.22952856 89.484375 150.23046875 C90.5325238 150.23765427 91.58067261 150.24483978 92.6605835 150.25224304 C101.53036566 150.22470133 109.42371051 148.97414614 116.375 142.9375 C122.28922857 136.3191966 127.45310921 129.72199709 131.578125 121.8359375 C132.04734375 121.23007812 132.5165625 120.62421875 133 120 C134.32 120 135.64 120 137 120 C133.95867246 133.68597393 128.68836825 146.78732583 124 160 C83.41 160 42.82 160 1 160 C1 158.68 1 157.36 1 156 C1.79664063 155.89042969 2.59328125 155.78085937 3.4140625 155.66796875 C11.63011309 154.55778525 11.63011309 154.55778525 19 151 C21.61855416 147.3731335 22.37426909 144.8676094 22.36749268 140.42114258 C22.37306183 139.31082672 22.37863098 138.20051086 22.3843689 137.05654907 C22.37515411 135.84808319 22.36593933 134.63961731 22.35644531 133.39453125 C22.35848969 132.11436127 22.36053406 130.83419128 22.36264038 129.51522827 C22.36776552 126.01105416 22.35425661 122.50717473 22.33711338 119.00304794 C22.32205228 115.33252442 22.32325079 111.66200433 22.32244873 107.99145508 C22.31875857 101.82791123 22.30380453 95.66447891 22.28125 89.50097656 C22.25237823 81.59516498 22.24202596 73.68944318 22.2375679 65.78358459 C22.23358382 58.98001893 22.22108289 52.17647269 22.20722103 45.37292099 C22.20312814 43.18917637 22.20019941 41.00543244 22.19742584 38.82168579 C22.19160945 34.74957834 22.17692563 30.67754971 22.16113281 26.60546875 C22.16001495 25.39700287 22.15889709 24.18853699 22.15774536 22.94345093 C22.15203522 21.83313507 22.14632507 20.72281921 22.14044189 19.57885742 C22.13746723 18.61654709 22.13449257 17.65423676 22.13142776 16.6627655 C21.99901697 13.98008351 21.74133677 11.58382721 21 9 C18.65245602 7.66096786 18.65245602 7.66096786 16 7 C15.01 6.67 14.02 6.34 13 6 C10.94106379 5.77674186 8.87766347 5.59294241 6.8125 5.4375 C5.72582031 5.35371094 4.63914063 5.26992187 3.51953125 5.18359375 C2.68808594 5.12300781 1.85664063 5.06242188 1 5 C0.67 3.35 0.34 1.7 0 0 Z " fill="#060606" transform="translate(232,218)"/>
<path d="M0 0 C46.86 0 93.72 0 142 0 C142.33 13.2 142.66 26.4 143 40 C141.35 40 139.7 40 138 40 C137.84144531 39.154375 137.68289063 38.30875 137.51953125 37.4375 C135.79328157 29.04468388 133.82623058 22.7255403 127.625 16.6875 C113.68349573 7.7251044 98.78741621 10.54152956 82 10 C82.33 57.19 82.66 104.38 83 153 C74.75 153 66.5 153 58 153 C58 105.81 58 58.62 58 10 C33.51179705 8.57803362 33.51179705 8.57803362 11.56640625 18.14453125 C6.22342806 24.47349544 4.1481042 31.9461347 3 40 C1.35 40 -0.3 40 -2 40 C-2 26.6500104 -0.8880281 13.32042148 0 0 Z " fill="#010101" transform="translate(190,55)"/>
<path d="M0 0 C3.07359605 2.87529953 4.7762253 4.73212945 5.203125 9.05859375 C5.30050568 14.00066346 4.79127857 17.91767838 3.25 22.625 C1.01915246 30.49978901 3.59447176 37.44798304 6 45 C9.86613911 40.19262807 9.312824 35.53862589 9.125 29.6875 C8.97217323 23.32720947 9.04007625 17.2985766 10 11 C10.66 11 11.32 11 12 11 C12.99 14.96 13.98 18.92 15 23 C16.5778125 21.3603125 16.5778125 21.3603125 18.1875 19.6875 C24.88853745 13 24.88853745 13 30 13 C29.75276128 18.06839375 28.09258147 20.77848743 24.81640625 24.43359375 C22.87943604 26.10397021 21.25689521 26.80152402 18.875 27.6875 C15.91551781 28.97911462 15.15023782 29.67264475 13.77734375 32.6640625 C13.15259393 34.70271979 12.58338881 36.75957462 12.08203125 38.83203125 C11.11333463 41.66817911 10.307295 43.088596 8.5390625 45.3984375 C5.81436363 49.01926839 4.66744285 52.4580277 3.5625 56.8125 C3.1544921 58.31604474 2.74290788 59.81862265 2.328125 61.3203125 C2.11607422 62.09020508 1.90402344 62.86009766 1.68554688 63.65332031 C0.77231175 66.77939441 -0.30285998 69.83743617 -1.38671875 72.90771484 C-6.10593054 86.34308062 -7.83488403 98.83988489 -6 113 C-5.67 113.66 -5.34 114.32 -5 115 C-4.78085938 114.33355469 -4.56171875 113.66710937 -4.3359375 112.98046875 C-2.17428954 106.69763016 0.43743482 101.16687329 3.92578125 95.5078125 C5.77088239 91.20034001 3.96868714 87.70151832 2.4375 83.5 C1.30588529 80.20952811 0.6595349 77.51813935 1 74 C4.16115776 75.36983503 4.9927092 75.9890638 7 79 C7.268125 78.05125 7.53625 77.1025 7.8125 76.125 C7.99425781 75.49464844 8.17601562 74.86429687 8.36328125 74.21484375 C8.82610802 72.60488807 9.28075786 70.99257475 9.73046875 69.37890625 C9.98441406 68.49074219 10.23835938 67.60257812 10.5 66.6875 C10.7371875 65.84574219 10.974375 65.00398438 11.21875 64.13671875 C12 62 12 62 14 60 C16.61431656 64.53690734 16.23282211 68.0147756 15 73 C13.53867038 76.45623684 11.84700387 79.73536954 10 83 C10.33 83.33 10.66 83.66 11 84 C11.35191406 83.49210937 11.70382813 82.98421875 12.06640625 82.4609375 C16.02813164 76.9372786 20.19155634 71.13443003 26.9375 69.125 C27.618125 69.08375 28.29875 69.0425 29 69 C27.69437301 77.19452731 27.69437301 77.19452731 25.4375 79.8125 C23.93766168 80.54319046 22.42018714 81.24025395 20.87890625 81.87890625 C12.95196471 85.19806896 10.05073185 89.62188128 6 97 C8.64 95.68 11.28 94.36 14 93 C14.33 93.66 14.66 94.32 15 95 C13.01152633 100.35080187 9.81106509 103.38126992 4.875 106.0625 C0.54515582 108.43860804 0.54515582 108.43860804 -2.125 112.4375 C-4.24137841 121.05418353 -1.88505046 126.32702534 2 134 C1.34 134 0.68 134 0 134 C-9.26552985 119.30426207 -10.60635445 104.20361004 -8.3125 87.3125 C-7.42232785 80.00037165 -11.00080947 74.79193111 -15 69 C-15 68.34 -15 67.68 -15 67 C-15.804375 66.5978125 -15.804375 66.5978125 -16.625 66.1875 C-19.41666667 64.79166667 -22.20833333 63.39583333 -25 62 C-25.639375 62.66 -26.27875 63.32 -26.9375 64 C-30.99299648 66.64848749 -34.27277258 66.56652431 -39 66 C-39.66 65.67 -40.32 65.34 -41 65 C-41 64.34 -41 63.68 -41 63 C-38.03 61.35 -35.06 59.7 -32 58 C-33.5675 57.7525 -35.135 57.505 -36.75 57.25 C-40.00960506 56.59070223 -41.81840656 56.12844414 -44.5625 54.1875 C-46.15851969 51.75877438 -46.68074659 49.87328071 -47 47 C-36.46328475 47.40919283 -36.46328475 47.40919283 -32 52 C-31.29875 52.763125 -30.5975 53.52625 -29.875 54.3125 C-25.69056171 58.22404014 -20.88161156 61.03341644 -16 64 C-17.4503122 60.73422598 -17.4503122 60.73422598 -20.3125 58.625 C-25.69796305 55.3686735 -28.42748772 51.00413778 -30 45 C-28.35 45.33 -26.7 45.66 -25 46 C-25.62120646 44.08210046 -26.24711891 42.16572478 -26.875 40.25 C-27.22304688 39.18265625 -27.57109375 38.1153125 -27.9296875 37.015625 C-28.8942255 34.08519352 -28.8942255 34.08519352 -30.1328125 31.796875 C-31 30 -31 30 -31 27 C-24.01354334 29.8463342 -20.90789779 35.46058008 -18 42 C-17.5875 42.825 -17.175 43.65 -16.75 44.5 C-16 47 -16 47 -16.125 50.4375 C-16.35678609 59.81592185 -12.85684469 68.84163426 -7 76 C-7 76.66 -7 77.32 -7 78 C-6.34 78 -5.68 78 -5 78 C-4.773125 76.824375 -4.54625 75.64875 -4.3125 74.4375 C-3.37780707 70.07787387 -1.92545123 66.05199467 -0.375 61.875 C3.24422511 51.63865087 2.68573515 41.46852407 0.92578125 30.85546875 C-0.40960239 28.17906694 -2.26096378 28.04727855 -5 27 C-7.01953125 24.94140625 -7.01953125 24.94140625 -8.8125 22.5625 C-9.71935547 21.38880859 -9.71935547 21.38880859 -10.64453125 20.19140625 C-12 18 -12 18 -12 15 C-8.54074837 16.2491742 -5.85306797 17.67527795 -3 20 C-3.04125 18.906875 -3.0825 17.81375 -3.125 16.6875 C-3.13454171 11.36322661 -2.24455914 6.16900839 -1 1 C-0.67 0.67 -0.34 0.34 0 0 Z M0 4 C0 6.31 0 8.62 0 11 C0.33 11 0.66 11 1 11 C1 8.69 1 6.38 1 4 C0.67 4 0.34 4 0 4 Z M2 6 C1.67 11.28 1.34 16.56 1 22 C3.05279359 17.89441282 3.2216942 16.19793315 3.125 11.75 C3.10695312 10.67234375 3.08890625 9.5946875 3.0703125 8.484375 C3.04710937 7.66453125 3.02390625 6.8446875 3 6 C2.67 6 2.34 6 2 6 Z M-1 11 C-1 14.3 -1 17.6 -1 21 C-0.67 21 -0.34 21 0 21 C0 17.7 0 14.4 0 11 C-0.33 11 -0.66 11 -1 11 Z M19.375 22.5 C18.55773437 23.1496875 17.74046875 23.799375 16.8984375 24.46875 C16.27195313 24.9740625 15.64546875 25.479375 15 26 C15.99 26.495 15.99 26.495 17 27 C18.50539661 26.05016642 20.00420347 25.08988109 21.5 24.125 C22.75296875 23.32449219 22.75296875 23.32449219 24.03125 22.5078125 C24.6809375 22.01023437 25.330625 21.51265625 26 21 C26 20.34 26 19.68 26 19 C23.00513763 19 21.67973067 20.65621546 19.375 22.5 Z M10 23 C10 25.97 10 28.94 10 32 C10.33 32 10.66 32 11 32 C11 29.03 11 26.06 11 23 C10.67 23 10.34 23 10 23 Z M-24 36 C-21.81386858 43.60817846 -21.81386858 43.60817846 -19 51 C-17.66743718 47.35879332 -18.34159623 45.33123446 -19.8125 41.8125 C-20.16957031 40.93207031 -20.52664062 40.05164063 -20.89453125 39.14453125 C-21.81109437 36.84857475 -21.81109437 36.84857475 -24 36 Z M-44 49 C-40.71195019 51.91227269 -38.40114397 53.49701212 -34 54 C-34.75150023 50.72226496 -34.75150023 50.72226496 -38 49 C-41.12521833 48.83300768 -41.12521833 48.83300768 -44 49 Z M-25 51 C-23.6910428 54.12197478 -23.6910428 54.12197478 -21 56 C-22.3089572 52.87802522 -22.3089572 52.87802522 -25 51 Z M-34 61 C-34.66 61.66 -35.32 62.32 -36 63 C-34.35 62.67 -32.7 62.34 -31 62 C-31.99 61.67 -32.98 61.34 -34 61 Z M25 74 C23.64172029 75.64639965 22.30745749 77.31295807 21 79 C22.32 78.67 23.64 78.34 25 78 C25.33 76.68 25.66 75.36 26 74 C25.67 74 25.34 74 25 74 Z M4 78 C5 80 5 80 5 80 Z " fill="#000000" transform="translate(83,330)"/>
<path d="M0 0 C5 0 5 0 6.6940918 1.35424805 C7.19078369 1.98371338 7.68747559 2.61317871 8.19921875 3.26171875 C9.04661621 4.31335205 9.04661621 4.31335205 9.91113281 5.38623047 C10.79043457 6.52535889 10.79043457 6.52535889 11.6875 7.6875 C12.60354004 8.83822998 12.60354004 8.83822998 13.53808594 10.01220703 C15.37521525 12.32906864 17.18984476 14.66202943 19 17 C20.02190572 18.30616933 21.04402327 19.61217296 22.06640625 20.91796875 C25.14830226 24.87714923 28.21574766 28.8236215 31 33 C31.33 22.11 31.66 11.22 32 0 C33.98 0 35.96 0 38 0 C38 14.85 38 29.7 38 45 C32 45 32 45 29.39453125 42.4296875 C28.51494582 41.25875939 27.65529894 40.07267822 26.8125 38.875 C25.85991613 37.59204596 24.90677428 36.30950605 23.953125 35.02734375 C23.46908203 34.36331543 22.98503906 33.69928711 22.48632812 33.01513672 C20.08750446 29.7628551 17.57215364 26.6044946 15.0625 23.4375 C14.17800822 22.31149411 13.29387523 21.18520626 12.41015625 20.05859375 C10.28575904 17.36264072 8.14419022 14.68023778 6 12 C5.67 22.89 5.34 33.78 5 45 C3.35 45 1.7 45 0 45 C0 30.15 0 15.3 0 0 Z " fill="#444342" transform="translate(430,417)"/>
<path d="M0 0 C5.8022242 3.99596658 9.94019871 8.20168707 11.49609375 15.24609375 C12.56722136 22.32436999 11.52132509 28.56627361 7.96484375 34.8203125 C4.1320111 39.99138841 -1.81451715 42.74376074 -8 44 C-16.39584344 44.82064635 -23.04207456 42.68258489 -30 38 C-35.63285046 31.78064884 -36.85045082 25.4942367 -36.44921875 17.2734375 C-35.48370707 10.23779587 -32.55414709 5.62793786 -26.98828125 1.25390625 C-18.44914389 -4.13128647 -9.01219427 -4.39015982 0 0 Z M-27.3125 9.375 C-30.66038476 14.58282073 -31.41281085 18.77909935 -30.5390625 24.82421875 C-29.17873933 30.31479849 -25.5862471 33.94250193 -21 37 C-15.88422298 39.44162085 -11.40634002 39.29036338 -6 38 C-0.72834182 36.00503916 2.31968397 32.94827575 5 28 C6.60957289 23.8419367 6.72556127 19.18082986 5.31640625 14.9453125 C3.06814576 10.00100519 0.43245439 7.11214882 -4 4 C-12.99856943 1.00047686 -20.73647043 2.6212399 -27.3125 9.375 Z " fill="#444342" transform="translate(389,419)"/>
<path d="M0 0 C10.56 0 21.12 0 32 0 C32 1.65 32 3.3 32 5 C23.42 5 14.84 5 6 5 C6 9.95 6 14.9 6 20 C13.59 20 21.18 20 29 20 C29 21.65 29 23.3 29 25 C21.41 25 13.82 25 6 25 C6 29.95 6 34.9 6 40 C14.91 40 23.82 40 33 40 C33 41.65 33 43.3 33 45 C22.11 45 11.22 45 0 45 C0 30.15 0 15.3 0 0 Z " fill="#444342" transform="translate(170,417)"/>
<path d="M0 0 C2.31 0 4.62 0 7 0 C9.04721121 4.47882821 11.09176143 8.95885873 13.1340332 13.43994141 C13.82669247 14.95881556 14.52003221 16.47737962 15.21411133 17.99560547 C19.30092043 26.9364225 23.30302524 35.88924372 27 45 C24.69 45 22.38 45 20 45 C19.32880451 43.5437455 18.66318193 42.08492133 18 40.625 C17.62875 39.81289063 17.2575 39.00078125 16.875 38.1640625 C16 36 16 36 16 34 C3.625 34.495 3.625 34.495 -9 35 C-10.65 38.3 -12.3 41.6 -14 45 C-15.98 45 -17.96 45 -20 45 C-15.99343528 35.12629595 -11.61699881 25.4390678 -7.1875 15.75 C-6.48745249 14.21492478 -5.78758153 12.67976904 -5.08789062 11.14453125 C-3.39395633 7.42875815 -1.69765315 3.71407542 0 0 Z M3 7 C1.49394598 10.28893003 -0.00380532 13.58157446 -1.5 16.875 C-1.92925781 17.81214844 -2.35851562 18.74929688 -2.80078125 19.71484375 C-3.20683594 20.61074219 -3.61289063 21.50664062 -4.03125 22.4296875 C-4.40830078 23.25710449 -4.78535156 24.08452148 -5.17382812 24.93701172 C-6.12392316 26.93906349 -6.12392316 26.93906349 -6 29 C0.27 29 6.54 29 13 29 C11.09788915 23.29366744 9.34492182 18.28372385 6.8125 12.9375 C6.28269531 11.81214844 5.75289062 10.68679688 5.20703125 9.52734375 C4.80871094 8.69332031 4.41039062 7.85929687 4 7 C3.67 7 3.34 7 3 7 Z " fill="#444342" transform="translate(245,417)"/>
<path d="M0 0 C-0.66 1.65 -1.32 3.3 -2 5 C-2.70125 4.77183594 -3.4025 4.54367187 -4.125 4.30859375 C-10.21802794 2.46247251 -14.78127144 1.36349248 -21 3 C-23.6715404 4.50279176 -23.6715404 4.50279176 -25 7 C-24.85650653 10.19954954 -24.85650653 10.19954954 -24 13 C-23.33355469 13.24234375 -22.66710937 13.4846875 -21.98046875 13.734375 C-20.04174932 14.43936388 -18.10433706 15.14795379 -16.16796875 15.859375 C-14.0967588 16.60511274 -12.01603714 17.32507032 -9.92578125 18.015625 C-8.96027344 18.34046875 -7.99476563 18.6653125 -7 19 C-5.6696875 19.433125 -5.6696875 19.433125 -4.3125 19.875 C-1.59433964 21.19734828 -0.53645294 22.41991864 1 25 C2.06094602 29.09222035 2.27791079 31.27743195 0.75 35.25 C-2.27831325 40.00877797 -4.38825084 41.69727252 -10 43 C-17.0342864 43.6238358 -22.6404987 43.12396555 -29 40 C-31.5 37.8125 -31.5 37.8125 -33 36 C-32.01 34.68 -31.02 33.36 -30 32 C-28.39125 32.9590625 -28.39125 32.9590625 -26.75 33.9375 C-21.68749468 36.80287801 -17.88826413 37.30990864 -12 37 C-8.13834634 35.88441117 -7.28502851 35.42754276 -5 32 C-4.60508102 29.46285686 -4.60508102 29.46285686 -6 27 C-11.43667771 23.48667525 -18.14922738 21.9262393 -24.30078125 20.125 C-27.35494655 18.8520628 -28.93289518 17.56965782 -31 15 C-32.09363987 10.47962185 -32.37797369 8.1561548 -30.9375 3.75 C-28.18077721 -0.16276782 -25.14477709 -2.34006859 -20.5625 -3.75 C-12.96619272 -4.49110315 -6.81994135 -3.40997067 0 0 Z " fill="#444342" transform="translate(326,420)"/>
<path d="M0 0 C-0.33 1.65 -0.66 3.3 -1 5 C-1.70125 4.77183594 -2.4025 4.54367187 -3.125 4.30859375 C-10.15980874 2.17712317 -15.59718621 0.90866345 -22.5 4.1875 C-24.63781283 6.7706905 -24.2885863 8.75340408 -24 12 C-19.1672049 14.65329927 -14.63270484 16.45630661 -9.3125 17.9375 C-0.596333 20.57661785 -0.596333 20.57661785 2 25 C2.85023346 29.7707544 2.71636716 33.59711432 0.5 37.9375 C-4.90283713 42.39484064 -10.54971585 43.51719671 -17.46875 43.29296875 C-23.12051112 42.63882973 -28.13624681 41.32401219 -32 37 C-31.34 35.35 -30.68 33.7 -30 32 C-29.45730469 32.27714844 -28.91460937 32.55429687 -28.35546875 32.83984375 C-27.64003906 33.20207031 -26.92460938 33.56429687 -26.1875 33.9375 C-25.47980469 34.29714844 -24.77210937 34.65679687 -24.04296875 35.02734375 C-18.44923238 37.69051843 -13.3234694 37.80265307 -7.5625 35.8125 C-4.8539273 34.21659555 -4.8539273 34.21659555 -3.875 31.5625 C-3.76281225 28.92249962 -3.76281225 28.92249962 -5.515625 26.9921875 C-9.23134585 24.01260003 -13.45801082 23.18356308 -17.98046875 22.02148438 C-23.08380365 20.59428055 -26.17129322 18.69405807 -30 15 C-31.53214888 11.93570224 -31.22938548 9.3834358 -31 6 C-29.09080218 1.43913854 -26.26328511 -0.61256034 -22 -3 C-14.51617842 -4.98575697 -6.57352721 -4.08624664 0 0 Z " fill="#444342" transform="translate(139,420)"/>
<path d="M0 0 C0.66 0 1.32 0 2 0 C2.68877573 6.10058507 2.39429856 8.99532183 -1.4375 13.875 C-5.50051953 19.08483956 -6.0864547 23.50354688 -6 30 C-5.01 29.67 -4.02 29.34 -3 29 C-2.91363281 28.38253906 -2.82726562 27.76507813 -2.73828125 27.12890625 C-1.65188041 20.58060027 0.45873602 15.59573774 4 10 C4.66 10 5.32 10 6 10 C5.67 12.64 5.34 15.28 5 18 C5.845625 17.67 6.69125 17.34 7.5625 17 C11.20989216 15.93894046 14.22274664 15.84890987 18 16 C14.31465517 21.65086207 14.31465517 21.65086207 10.6171875 22.6328125 C9.75351562 22.75398438 8.88984375 22.87515625 8 23 C3.98021493 23.58782677 3.26685246 23.7207358 0.3125 26.8125 C-0.450625 27.864375 -1.21375 28.91625 -2 30 C-3.0725 30.721875 -4.145 31.44375 -5.25 32.1875 C-9.61510938 35.12920415 -12.55427664 39.11340024 -15.7890625 43.21484375 C-17.74654489 45.68071821 -19.7704212 48.03509909 -21.875 50.375 C-24.2835562 53.09091255 -26.28781454 55.77706266 -28 59 C-28.33 58.34 -28.66 57.68 -29 57 C-28.69707031 56.39800781 -28.39414062 55.79601562 -28.08203125 55.17578125 C-25.93168789 50.85180561 -26.30737461 45.44429736 -27.60546875 40.86328125 C-28.73960926 38.11716438 -29.89252387 36.10747613 -32 34 C-34.0095466 34 -36.02138222 34.00501725 -38.02734375 34.125 C-40 34 -40 34 -43 32 C-43 31.34 -43 30.68 -43 30 C-39.535 29.505 -39.535 29.505 -36 29 C-37.175625 28.4740625 -37.175625 28.4740625 -38.375 27.9375 C-41.83547272 25.38334156 -42.14536744 23.11777506 -43 19 C-42.34 18.67 -41.68 18.34 -41 18 C-35.71796653 20.76106295 -34.10338462 23.30976437 -31.9453125 28.8046875 C-30.73717474 31.61036281 -29.03840526 33.74319417 -27 36 C-27.28875 35.505 -27.5775 35.01 -27.875 34.5 C-29.81276966 30.1938452 -31 25.72746228 -31 21 C-30.01 21.33 -29.02 21.66 -28 22 C-27.67 17.71 -27.34 13.42 -27 9 C-26.34 9 -25.68 9 -25 9 C-22.38317353 13.5293883 -21.61314364 16.78361516 -21.6875 22 C-21.69136719 23.175625 -21.69523437 24.35125 -21.69921875 25.5625 C-22.0016972 29.01939655 -22.87768548 31.73468335 -24 35 C-24.27422429 37.64014088 -24.27422429 37.64014088 -24.1875 40.1875 C-24.18105469 41.02667969 -24.17460937 41.86585937 -24.16796875 42.73046875 C-24.08104148 45.16578288 -24.08104148 45.16578288 -23 48 C-14.72978312 39.41412598 -8.66355523 32.84815301 -7.8828125 20.54296875 C-8.03906689 17.15224856 -9.31134762 14.9044821 -11 12 C-11.1875 8.625 -11.1875 8.625 -11 6 C-8.525 8.475 -8.525 8.475 -6 11 C-5.47599609 9.93458984 -5.47599609 9.93458984 -4.94140625 8.84765625 C-4.48636719 7.92855469 -4.03132813 7.00945313 -3.5625 6.0625 C-3.11003906 5.14597656 -2.65757812 4.22945312 -2.19140625 3.28515625 C-1 1 -1 1 0 0 Z M-24 19 C-24.33 21.64 -24.66 24.28 -25 27 C-24.34 27 -23.68 27 -23 27 C-23 24.36 -23 21.72 -23 19 C-23.33 19 -23.66 19 -24 19 Z M4 22 C7.465 21.505 7.465 21.505 11 21 C11 20.67 11 20.34 11 20 C7.04542152 19.65176193 7.04542152 19.65176193 4 22 Z M-40 21 C-38.68 22.32 -37.36 23.64 -36 25 C-36.66 23.68 -37.32 22.36 -38 21 C-38.66 21 -39.32 21 -40 21 Z M-29 27 C-28 29 -28 29 -28 29 Z " fill="#000000" transform="translate(372,10)"/>
<path d="M0 0 C0.33 0 0.66 0 1 0 C1.45507591 6.48483168 0.71080066 9.6399546 -3 15 C-3.66 15.61875 -4.32 16.2375 -5 16.875 C-8.01522398 20.07867548 -9.37460451 23.95380271 -11 28 C0.57913197 23.68108468 0.57913197 23.68108468 9 15 C9.44111565 13.11845117 9.8109267 11.21937362 10.125 9.3125 C10.29257812 8.31863281 10.46015625 7.32476562 10.6328125 6.30078125 C10.75398438 5.54152344 10.87515625 4.78226562 11 4 C11.66 4 12.32 4 13 4 C13.33 5.32 13.66 6.64 14 8 C14.48210937 7.6390625 14.96421875 7.278125 15.4609375 6.90625 C16.09257812 6.4421875 16.72421875 5.978125 17.375 5.5 C18.00148438 5.0359375 18.62796875 4.571875 19.2734375 4.09375 C21 3 21 3 23 3 C22.71711523 6.39461728 22.25867941 7.74132059 19.8125 10.1875 C17 12 17 12 13.8125 12.9375 C10.79268929 13.72265104 10.79268929 13.72265104 9.6875 16.5 C9.460625 17.325 9.23375 18.15 9 19 C8.67 19.66 8.34 20.32 8 21 C11.14049231 20.26742523 11.14049231 20.26742523 12.75 17.6875 C15.53829663 14.35703458 18.16529752 12.99109552 22 11 C21.42655063 13.86724686 21.1385485 14.8614515 19 17 C23.455 17.99 23.455 17.99 28 19 C28 19.66 28 20.32 28 21 C24.67728722 22.66135639 21.21182931 22.31462905 17.66796875 21.39453125 C8.22323087 19.99787162 -4.30461915 27.4111046 -13 31 C-14.6657485 31.66895751 -16.33202935 32.33660258 -18 33 C-17.21625 32.195625 -16.4325 31.39125 -15.625 30.5625 C-12.46323258 26.76298972 -11.45154257 22.87144969 -11 18 C-11.27061634 14.59873403 -11.27061634 14.59873403 -12 12 C-11.34 11.67 -10.68 11.34 -10 11 C-9.67 12.65 -9.34 14.3 -9 16 C-8.855625 14.88625 -8.71125 13.7725 -8.5625 12.625 C-8 9 -8 9 -7 7 C-6.38125 6.9175 -5.7625 6.835 -5.125 6.75 C-2.63198048 6.1304373 -2.63198048 6.1304373 -1.25 2.9375 C-0.8375 1.968125 -0.425 0.99875 0 0 Z M-8 12 C-7 15 -7 15 -7 15 Z M21 20 C25 21 25 21 25 21 Z " fill="#000000" transform="translate(391,327)"/>
<path d="M0 0 C4 1 4 1 5.5625 2.5625 C7.17174972 5.29122779 8.07285175 7.9686673 8.9609375 11 C9.91610986 13.22757079 9.91610986 13.22757079 12.453125 14.65625 C16.16974581 18.0764532 16.50529821 21.65451859 17.375 26.5 C17.55160156 27.35464844 17.72820313 28.20929688 17.91015625 29.08984375 C18.69319088 33.10524533 19.23771662 36.02941408 18 40 C17.21625 39.195625 16.4325 38.39125 15.625 37.5625 C12.76431382 34.76992539 12.01420428 34.1102396 8.125 33.6875 C4.88545719 33.71433147 4.88545719 33.71433147 2.625 36 C2.08875 36.66 1.5525 37.32 1 38 C0.01 37.67 -0.98 37.34 -2 37 C-1.67 36.01 -1.34 35.02 -1 34 C-2.98 34 -4.96 34 -7 34 C-7.495 32.515 -7.495 32.515 -8 31 C-4.78548731 29.39274365 -1.56387464 29.94251815 2 30 C0.68 28.68 -0.64 27.36 -2 26 C-1.34 25.67 -0.68 25.34 0 25 C-1.98 23.35 -3.96 21.7 -6 20 C-4.3125 19.3125 -4.3125 19.3125 -2 19 C2.25312648 21.02023508 5.32821426 23.86740153 8.21875 27.5546875 C10.6826756 30.69469024 12.06044285 32.30723889 16 33 C14.86991836 25.60986087 13.45347501 19.45347501 8 14 C5.95211518 13.1624193 3.8763398 12.47965013 1.77734375 11.78125 C0 11 0 11 -1 9 C0.32 8.67 1.64 8.34 3 8 C2.01 5.36 1.02 2.72 0 0 Z M6 30 C6.33 30.66 6.66 31.32 7 32 C7.66 31.67 8.32 31.34 9 31 C8.01 30.67 7.02 30.34 6 30 Z M-5 31 C-1 32 -1 32 -1 32 Z " fill="#000000" transform="translate(44,217)"/>
<path d="M0 0 C0.33 0 0.66 0 1 0 C1.5 2.5625 1.5 2.5625 1 6 C-1.41995038 8.65876127 -4.13443598 10.83803429 -7 13 C-5.28822349 12.42940783 -3.57907687 11.85039012 -1.87890625 11.24609375 C-1.11449219 10.97925781 -0.35007812 10.71242188 0.4375 10.4375 C1.58025391 10.03337891 1.58025391 10.03337891 2.74609375 9.62109375 C5 9 5 9 9 9 C6.6557377 14.2295082 6.6557377 14.2295082 4 16 C2.02192799 16 0.04285674 15.99413968 -1.93359375 15.9140625 C-6.08375371 16.08665894 -9.14350874 18.14350874 -12 21 C-10.35 21.33 -8.7 21.66 -7 22 C-10.5014109 26.5670577 -14.57787183 27.2044754 -20 28 C-20.66 28 -21.32 28 -22 28 C-20.82827372 24.83633905 -19.8884389 23.92562593 -17 22 C-13.66196135 19.43165473 -13.35384222 16.88843499 -12.75 12.8125 C-12.64171875 11.76707031 -12.5334375 10.72164062 -12.421875 9.64453125 C-12 7 -12 7 -10 5 C-9.34 6.65 -8.68 8.3 -8 10 C-7.59007812 9.44570313 -7.18015625 8.89140625 -6.7578125 8.3203125 C-6.21898437 7.59585938 -5.68015625 6.87140625 -5.125 6.125 C-4.59132813 5.40570313 -4.05765625 4.68640625 -3.5078125 3.9453125 C-2 2 -2 2 0 0 Z M-11 8 C-10 12 -10 12 -10 12 Z " fill="#000000" transform="translate(365,53)"/>
<path d="M0 0 C-0.33 1.32 -0.66 2.64 -1 4 C0.093125 3.34 1.18625 2.68 2.3125 2 C4.93707538 0.41535071 5.8256378 0 9 0 C7.9024777 2.99324263 7.32317108 3.84610901 4.375 5.25 C3.59125 5.4975 2.8075 5.745 2 6 C4.97 6.99 7.94 7.98 11 9 C10.67 9.66 10.34 10.32 10 11 C7.125 11.75 7.125 11.75 4 12 C3.01 11.34 2.02 10.68 1 10 C-1.0492094 9.54860541 -1.0492094 9.54860541 -3.1875 9.375 C-4.445625 9.25125 -5.70375 9.1275 -7 9 C-7 9.66 -7 10.32 -7 11 C-6.01 11.33 -5.02 11.66 -4 12 C-5.5625 13.125 -5.5625 13.125 -8 14 C-11.75 13.125 -11.75 13.125 -15 12 C-14.67 11.01 -14.34 10.02 -14 9 C-11.36 8.67 -8.72 8.34 -6 8 C-5.896875 7.236875 -5.79375 6.47375 -5.6875 5.6875 C-4.83195622 2.34310158 -3.70341243 0 0 0 Z " fill="#000000" transform="translate(385,357)"/>
<path d="M0 0 C0.99 0.33 1.98 0.66 3 1 C4.1875 3.5625 4.1875 3.5625 5 6 C5.99 4.02 6.98 2.04 8 0 C8.66 0 9.32 0 10 0 C10.1875 3.3125 10.1875 3.3125 10 7 C8.5 8.625 8.5 8.625 7 10 C6.74930087 12.62570704 6.74930087 12.62570704 7 15 C7.66 14.67 8.32 14.34 9 14 C9 15.98 9 17.96 9 20 C8.01 20.33 7.02 20.66 6 21 C5.26676204 23.01508358 5.26676204 23.01508358 5 25 C4.98582031 24.39671875 4.97164063 23.7934375 4.95703125 23.171875 C4.74001373 17.79001138 4.74001373 17.79001138 1.5 13.6875 C0.675 13.130625 -0.15 12.57375 -1 12 C-1.8125 9.75 -1.8125 9.75 -2 8 C-1.01 8 -0.02 8 1 8 C0.67 5.36 0.34 2.72 0 0 Z " fill="#000000" transform="translate(65,240)"/>
<path d="M0 0 C0.33 0 0.66 0 1 0 C1.10864945 2.06132142 1.18588321 4.12431321 1.25 6.1875 C1.29640625 7.33605469 1.3428125 8.48460938 1.390625 9.66796875 C0.92164443 13.66837298 -0.46865489 14.96238587 -3 18 C-3.68594863 20.8785546 -3.68594863 20.8785546 -3.75 23.8125 C-3.80671875 24.78832031 -3.8634375 25.76414062 -3.921875 26.76953125 C-3.94765625 27.50558594 -3.9734375 28.24164063 -4 29 C-4.33 29 -4.66 29 -5 29 C-6.69284526 18.6389712 -5.33144678 9.13962305 0 0 Z " fill="#BEBCB7" transform="translate(342,69)"/>
<path d="M0 0 C0.66 0.33 1.32 0.66 2 1 C1.24781341 7.51895044 1.24781341 7.51895044 -0.0625 10.0625 C-1.3589057 12.74173845 -1.13326354 15.06820212 -1 18 C-3.95051654 14.54077371 -6.25855517 11.2161296 -8 7 C-7.67 6.01 -7.34 5.02 -7 4 C-6.01 4.99 -5.02 5.98 -4 7 C-2.68 4.69 -1.36 2.38 0 0 Z M-1 5 C0 7 0 7 0 7 Z " fill="#000000" transform="translate(60,215)"/>
<path d="M0 0 C0.66 0.66 1.32 1.32 2 2 C4.57061311 2.64767793 4.57061311 2.64767793 7 3 C7.33 5.64 7.66 8.28 8 11 C7.01 11 6.02 11 5 11 C1.54736544 7.54736544 0.44925138 4.82945236 0 0 Z " fill="#C5C3BD" transform="translate(63,257)"/>
<path d="M0 0 C0.17942163 3.94727588 0.09350689 6.5980513 -2 10 C-4.4375 9.25 -4.4375 9.25 -7 8 C-7.8125 5.875 -7.8125 5.875 -8 4 C-5.525 4.495 -5.525 4.495 -3 5 C-3.33 3.68 -3.66 2.36 -4 1 C-1 0 -1 0 0 0 Z " fill="#AAA8A3" transform="translate(381,332)"/>
<path d="M0 0 C2.31 0 4.62 0 7 0 C6.34 2.31 5.68 4.62 5 7 C4.01 7 3.02 7 2 7 C2 6.34 2 5.68 2 5 C1.01 5 0.02 5 -1 5 C-0.67 3.35 -0.34 1.7 0 0 Z " fill="#C2C0BA" transform="translate(377,328)"/>
<path d="M0 0 C0.33 0 0.66 0 1 0 C1 1.98 1 3.96 1 6 C0.01 6.33 -0.98 6.66 -2 7 C-2.73323796 9.01508358 -2.73323796 9.01508358 -3 11 C-3 8.36 -3 5.72 -3 3 C-2.34 3 -1.68 3 -1 3 C-0.67 2.01 -0.34 1.02 0 0 Z " fill="#141413" transform="translate(73,254)"/>
<path d="M0 0 C0.1875 2.875 0.1875 2.875 0 6 C-0.99 6.66 -1.98 7.32 -3 8 C-3.33 5.69 -3.66 3.38 -4 1 C-1 0 -1 0 0 0 Z " fill="#8F8D89" transform="translate(381,332)"/>
<path d="M0 0 C1.65 0 3.3 0 5 0 C4.34 2.31 3.68 4.62 3 7 C1.79371992 4.66785852 0.8345262 2.50357861 0 0 Z " fill="#FFFCF5" transform="translate(379,328)"/>
</svg>
